<?xml version="1.0" encoding="iso-8859-1"?>
<!-- Generator: Adobe Illustrator 18.0.0, SVG Export Plug-In . SVG Version: 6.00 Build 0)  -->
<!DOCTYPE svg PUBLIC "-//W3C//DTD SVG 1.1//EN" "http://www.w3.org/Graphics/SVG/1.1/DTD/svg11.dtd">
<svg version="1.1" id="Capa_1" xmlns="http://www.w3.org/2000/svg" xmlns:xlink="http://www.w3.org/1999/xlink" x="0px" y="0px"
	 viewBox="0 0 462.887 462.887" style="enable-background:new 0 0 462.887 462.887;" xml:space="preserve">
<path d="M366.411,249.878l-43.602-13.004c0,0,0,0.016,0,0.03l-22.615-6.741c9.67-13.871,15.809-32.826,16.484-43.318
	c12.944-2.69,25.179-14.767,30.918-31.226c7.383-21.285,1.847-42.095-12.402-49.742l-7.975-52.954
	C322.637,22.498,296.503,0,265.741,0h-68.485c-30.763,0-56.895,22.498-61.477,52.924l-7.978,52.962
	c-6.725,3.651-11.87,10.313-14.2,19.119c-2.455,9.33-1.814,20.208,1.814,30.615c5.691,16.344,17.771,28.373,30.947,31.169
	c0.763,10.558,6.838,29.59,16.393,43.329l-66.279,19.761c-13.231,3.941-22.286,16.093-22.286,29.887v25.915
	c0,86.822,70.377,157.207,157.208,157.207c0.014,0,0.03,0,0.046,0c0.017,0,0.03,0,0.047,0c86.83,0,157.207-70.385,157.207-157.207
	v-25.915C388.698,265.971,379.643,253.819,366.411,249.878z M152.242,171.687c-6.687-0.303-16.949-7.661-21.703-21.329
	c-2.55-7.336-3.082-15.084-1.455-21.263c0.798-2.979,2.8-8.219,7.46-9.836c0.501-0.173,1.486-0.274,1.972-0.322
	c3.956-0.383,7.037-3.611,7.225-7.585c0.048-0.969,0.189-1.871,0.391-2.815c3.274-15.349,32.186-83.928,70.941-61.83
	c0,0,0.36,0.258,1.049,0.681c8.194,5.027,18.532,5.035,26.727,0.014c0.705-0.429,1.08-0.695,1.08-0.695
	c38.691-22.052,67.509,46.179,70.815,61.708c0.206,0.968,0.454,1.945,0.501,2.938c0.188,3.974,3.269,7.202,7.226,7.585
	c0.485,0.048,1.47,0.149,1.985,0.322c7.086,2.471,11.309,15.858,6.022,31.099c-4.771,13.669-14.954,21.152-21.828,21.453
	c-32.371,1.416-59.216-9.043-60.122-9.466c-0.016-0.008-0.171-0.071-0.171-0.071c0.014,0.008,0.014,0.017,0.029,0.025
	c-5.817-2.395-12.182-3.77-18.908-3.77c-6.709,0-13.074,1.383-18.891,3.792c0.014-0.016,0.03-0.03,0.046-0.047
	c0,0-0.219,0.095-0.249,0.109C211.08,162.977,184.527,173.15,152.242,171.687z M255.138,225.864l-0.627,0.494
	c-2.156,1.688-5.051,2.086-7.584,1.055c-2.534-1.033-4.316-3.339-4.677-6.054l-1.814-13.614c-0.188-1.313-1.297-2.29-2.626-2.29
	h-12.857c-1.328,0-2.438,0.977-2.626,2.29l-1.814,13.614c-0.36,2.715-2.143,5.021-4.676,6.054c-2.534,1.031-5.428,0.633-7.585-1.055
	l-0.485-0.376c-6.976-5.45-9.665-14.748-6.71-23.084c3.379-9.493,12.356-15.835,22.427-15.835h15.906
	c10.071,0,19.048,6.342,22.427,15.835C264.771,211.195,262.081,220.445,255.138,225.864z M231.804,300.432
	c-39.96,0-73.693-20.276-86.299-48.458l28.525-8.508c6.96,7.093,36.44,28.049,42.963,28.049h28.963
	c6.553,0,36.003-20.926,42.947-28.009l29.072,8.672C305.309,280.25,271.652,300.432,231.804,300.432z"/>
<g>
</g>
<g>
</g>
<g>
</g>
<g>
</g>
<g>
</g>
<g>
</g>
<g>
</g>
<g>
</g>
<g>
</g>
<g>
</g>
<g>
</g>
<g>
</g>
<g>
</g>
<g>
</g>
<g>
</g>
</svg>
